<svg width="15" height="15" viewBox="0 0 15 15" fill="none" xmlns="http://www.w3.org/2000/svg">
<path d="M6.7427 9.49733L3.17337 5.928C3.12448 5.87822 3.08314 5.82089 3.04937 5.756C3.01559 5.69111 2.99915 5.62133 3.00003 5.54667C3.00003 5.39733 3.04892 5.26889 3.1467 5.16133C3.24626 5.05378 3.37692 5 3.5387 5H11.1067C11.2685 5 11.3987 5.05511 11.4974 5.16533C11.596 5.27556 11.6454 5.404 11.6454 5.55067C11.6454 5.58622 11.5876 5.712 11.472 5.928L7.9027 9.49733C7.82003 9.57911 7.73114 9.64222 7.63603 9.68667C7.54092 9.73111 7.43648 9.75333 7.3227 9.75333C7.20892 9.75333 7.10448 9.73111 7.00937 9.68667C6.91426 9.64222 6.82537 9.57911 6.7427 9.49733Z" fill="white"/>
</svg>
